<svg xmlns="http://www.w3.org/2000/svg" width="200" height="200" viewBox="0 0 200 200"><rect width="200" height="200" fill="#fff"></rect><g fill="#22383C"><rect x="56" y="0" width="8" height="8"></rect><rect x="72" y="0" width="8" height="8"></rect><rect x="80" y="0" width="8" height="8"></rect><rect x="88" y="0" width="8" height="8"></rect><rect x="96" y="0" width="8" height="8"></rect><rect x="112" y="0" width="8" height="8"></rect><rect x="120" y="0" width="8" height="8"></rect><rect x="128" y="0" width="8" height="8"></rect><rect x="136" y="0" width="8" height="8"></rect><rect x="64" y="8" width="8" height="8"></rect><rect x="80" y="8" width="8" height="8"></rect><rect x="104" y="8" width="8" height="8"></rect><rect x="112" y="8" width="8" height="8"></rect><rect x="120" y="8" width="8" height="8"></rect><rect x="56" y="16" width="8" height="8"></rect><rect x="88" y="16" width="8" height="8"></rect><rect x="96" y="16" width="8" height="8"></rect><rect x="120" y="16" width="8" height="8"></rect><rect x="72" y="24" width="8" height="8"></rect><rect x="80" y="24" width="8" height="8"></rect><rect x="96" y="24" width="8" height="8"></rect><rect x="120" y="24" width="8" height="8"></rect><rect x="128" y="24" width="8" height="8"></rect><rect x="56" y="32" width="8" height="8"></rect><rect x="64" y="32" width="8" height="8"></rect><rect x="72" y="32" width="8" height="8"></rect><rect x="88" y="32" width="8" height="8"></rect><rect x="104" y="32" width="8" height="8"></rect><rect x="120" y="32" width="8" height="8"></rect><rect x="72" y="40" width="8" height="8"></rect><rect x="112" y="40" width="8" height="8"></rect><rect x="72" y="48" width="8" height="8"></rect><rect x="88" y="48" width="8" height="8"></rect><rect x="96" y="48" width="8" height="8"></rect><rect x="104" y="48" width="8" height="8"></rect><rect x="112" y="48" width="8" height="8"></rect><rect x="128" y="48" width="8" height="8"></rect><rect x="0" y="56" width="8" height="8"></rect><rect x="8" y="56" width="8" height="8"></rect><rect x="24" y="56" width="8" height="8"></rect><rect x="32" y="56" width="8" height="8"></rect><rect x="48" y="56" width="8" height="8"></rect><rect x="56" y="56" width="8" height="8"></rect><rect x="64" y="56" width="8" height="8"></rect><rect x="80" y="56" width="8" height="8"></rect><rect x="88" y="56" width="8" height="8"></rect><rect x="104" y="56" width="8" height="8"></rect><rect x="112" y="56" width="8" height="8"></rect><rect x="128" y="56" width="8" height="8"></rect><rect x="136" y="56" width="8" height="8"></rect><rect x="144" y="56" width="8" height="8"></rect><rect x="160" y="56" width="8" height="8"></rect><rect x="168" y="56" width="8" height="8"></rect><rect x="176" y="56" width="8" height="8"></rect><rect x="184" y="56" width="8" height="8"></rect><rect x="192" y="56" width="8" height="8"></rect><rect x="8" y="64" width="8" height="8"></rect><rect x="40" y="64" width="8" height="8"></rect><rect x="56" y="64" width="8" height="8"></rect><rect x="72" y="64" width="8" height="8"></rect><rect x="112" y="64" width="8" height="8"></rect><rect x="120" y="64" width="8" height="8"></rect><rect x="128" y="64" width="8" height="8"></rect><rect x="136" y="64" width="8" height="8"></rect><rect x="144" y="64" width="8" height="8"></rect><rect x="152" y="64" width="8" height="8"></rect><rect x="184" y="64" width="8" height="8"></rect><rect x="192" y="64" width="8" height="8"></rect><rect x="0" y="72" width="8" height="8"></rect><rect x="8" y="72" width="8" height="8"></rect><rect x="16" y="72" width="8" height="8"></rect><rect x="24" y="72" width="8" height="8"></rect><rect x="32" y="72" width="8" height="8"></rect><rect x="40" y="72" width="8" height="8"></rect><rect x="56" y="72" width="8" height="8"></rect><rect x="72" y="72" width="8" height="8"></rect><rect x="96" y="72" width="8" height="8"></rect><rect x="144" y="72" width="8" height="8"></rect><rect x="152" y="72" width="8" height="8"></rect><rect x="160" y="72" width="8" height="8"></rect><rect x="168" y="72" width="8" height="8"></rect><rect x="176" y="72" width="8" height="8"></rect><rect x="184" y="72" width="8" height="8"></rect><rect x="24" y="80" width="8" height="8"></rect><rect x="48" y="80" width="8" height="8"></rect><rect x="96" y="80" width="8" height="8"></rect><rect x="104" y="80" width="8" height="8"></rect><rect x="112" y="80" width="8" height="8"></rect><rect x="144" y="80" width="8" height="8"></rect><rect x="168" y="80" width="8" height="8"></rect><rect x="184" y="80" width="8" height="8"></rect><rect x="8" y="88" width="8" height="8"></rect><rect x="16" y="88" width="8" height="8"></rect><rect x="32" y="88" width="8" height="8"></rect><rect x="48" y="88" width="8" height="8"></rect><rect x="64" y="88" width="8" height="8"></rect><rect x="72" y="88" width="8" height="8"></rect><rect x="80" y="88" width="8" height="8"></rect><rect x="88" y="88" width="8" height="8"></rect><rect x="96" y="88" width="8" height="8"></rect><rect x="120" y="88" width="8" height="8"></rect><rect x="144" y="88" width="8" height="8"></rect><rect x="168" y="88" width="8" height="8"></rect><rect x="176" y="88" width="8" height="8"></rect><rect x="184" y="88" width="8" height="8"></rect><rect x="16" y="96" width="8" height="8"></rect><rect x="32" y="96" width="8" height="8"></rect><rect x="40" y="96" width="8" height="8"></rect><rect x="48" y="96" width="8" height="8"></rect><rect x="64" y="96" width="8" height="8"></rect><rect x="104" y="96" width="8" height="8"></rect><rect x="112" y="96" width="8" height="8"></rect><rect x="152" y="96" width="8" height="8"></rect><rect x="168" y="96" width="8" height="8"></rect><rect x="176" y="96" width="8" height="8"></rect><rect x="184" y="96" width="8" height="8"></rect><rect x="192" y="96" width="8" height="8"></rect><rect x="8" y="104" width="8" height="8"></rect><rect x="16" y="104" width="8" height="8"></rect><rect x="32" y="104" width="8" height="8"></rect><rect x="40" y="104" width="8" height="8"></rect><rect x="48" y="104" width="8" height="8"></rect><rect x="56" y="104" width="8" height="8"></rect><rect x="72" y="104" width="8" height="8"></rect><rect x="80" y="104" width="8" height="8"></rect><rect x="96" y="104" width="8" height="8"></rect><rect x="112" y="104" width="8" height="8"></rect><rect x="120" y="104" width="8" height="8"></rect><rect x="128" y="104" width="8" height="8"></rect><rect x="136" y="104" width="8" height="8"></rect><rect x="144" y="104" width="8" height="8"></rect><rect x="176" y="104" width="8" height="8"></rect><rect x="184" y="104" width="8" height="8"></rect><rect x="8" y="112" width="8" height="8"></rect><rect x="16" y="112" width="8" height="8"></rect><rect x="24" y="112" width="8" height="8"></rect><rect x="32" y="112" width="8" height="8"></rect><rect x="48" y="112" width="8" height="8"></rect><rect x="56" y="112" width="8" height="8"></rect><rect x="64" y="112" width="8" height="8"></rect><rect x="120" y="112" width="8" height="8"></rect><rect x="144" y="112" width="8" height="8"></rect><rect x="152" y="112" width="8" height="8"></rect><rect x="184" y="112" width="8" height="8"></rect><rect x="192" y="112" width="8" height="8"></rect><rect x="0" y="120" width="8" height="8"></rect><rect x="8" y="120" width="8" height="8"></rect><rect x="24" y="120" width="8" height="8"></rect><rect x="40" y="120" width="8" height="8"></rect><rect x="48" y="120" width="8" height="8"></rect><rect x="72" y="120" width="8" height="8"></rect><rect x="80" y="120" width="8" height="8"></rect><rect x="88" y="120" width="8" height="8"></rect><rect x="112" y="120" width="8" height="8"></rect><rect x="120" y="120" width="8" height="8"></rect><rect x="128" y="120" width="8" height="8"></rect><rect x="152" y="120" width="8" height="8"></rect><rect x="160" y="120" width="8" height="8"></rect><rect x="184" y="120" width="8" height="8"></rect><rect x="192" y="120" width="8" height="8"></rect><rect x="8" y="128" width="8" height="8"></rect><rect x="16" y="128" width="8" height="8"></rect><rect x="24" y="128" width="8" height="8"></rect><rect x="32" y="128" width="8" height="8"></rect><rect x="40" y="128" width="8" height="8"></rect><rect x="80" y="128" width="8" height="8"></rect><rect x="88" y="128" width="8" height="8"></rect><rect x="120" y="128" width="8" height="8"></rect><rect x="128" y="128" width="8" height="8"></rect><rect x="136" y="128" width="8" height="8"></rect><rect x="144" y="128" width="8" height="8"></rect><rect x="152" y="128" width="8" height="8"></rect><rect x="160" y="128" width="8" height="8"></rect><rect x="168" y="128" width="8" height="8"></rect><rect x="176" y="128" width="8" height="8"></rect><rect x="184" y="128" width="8" height="8"></rect><rect x="192" y="128" width="8" height="8"></rect><rect x="8" y="136" width="8" height="8"></rect><rect x="24" y="136" width="8" height="8"></rect><rect x="32" y="136" width="8" height="8"></rect><rect x="40" y="136" width="8" height="8"></rect><rect x="64" y="136" width="8" height="8"></rect><rect x="88" y="136" width="8" height="8"></rect><rect x="120" y="136" width="8" height="8"></rect><rect x="136" y="136" width="8" height="8"></rect><rect x="144" y="136" width="8" height="8"></rect><rect x="152" y="136" width="8" height="8"></rect><rect x="160" y="136" width="8" height="8"></rect><rect x="184" y="136" width="8" height="8"></rect><rect x="64" y="144" width="8" height="8"></rect><rect x="80" y="144" width="8" height="8"></rect><rect x="88" y="144" width="8" height="8"></rect><rect x="120" y="144" width="8" height="8"></rect><rect x="128" y="144" width="8" height="8"></rect><rect x="136" y="144" width="8" height="8"></rect><rect x="56" y="152" width="8" height="8"></rect><rect x="72" y="152" width="8" height="8"></rect><rect x="80" y="152" width="8" height="8"></rect><rect x="96" y="152" width="8" height="8"></rect><rect x="104" y="152" width="8" height="8"></rect><rect x="144" y="152" width="8" height="8"></rect><rect x="152" y="152" width="8" height="8"></rect><rect x="160" y="152" width="8" height="8"></rect><rect x="176" y="152" width="8" height="8"></rect><rect x="192" y="152" width="8" height="8"></rect><rect x="120" y="160" width="8" height="8"></rect><rect x="136" y="160" width="8" height="8"></rect><rect x="144" y="160" width="8" height="8"></rect><rect x="152" y="160" width="8" height="8"></rect><rect x="184" y="160" width="8" height="8"></rect><rect x="192" y="160" width="8" height="8"></rect><rect x="64" y="168" width="8" height="8"></rect><rect x="96" y="168" width="8" height="8"></rect><rect x="104" y="168" width="8" height="8"></rect><rect x="128" y="168" width="8" height="8"></rect><rect x="136" y="168" width="8" height="8"></rect><rect x="152" y="168" width="8" height="8"></rect><rect x="160" y="168" width="8" height="8"></rect><rect x="168" y="168" width="8" height="8"></rect><rect x="176" y="168" width="8" height="8"></rect><rect x="64" y="176" width="8" height="8"></rect><rect x="88" y="176" width="8" height="8"></rect><rect x="96" y="176" width="8" height="8"></rect><rect x="112" y="176" width="8" height="8"></rect><rect x="120" y="176" width="8" height="8"></rect><rect x="128" y="176" width="8" height="8"></rect><rect x="152" y="176" width="8" height="8"></rect><rect x="160" y="176" width="8" height="8"></rect><rect x="168" y="176" width="8" height="8"></rect><rect x="176" y="176" width="8" height="8"></rect><rect x="184" y="176" width="8" height="8"></rect><rect x="56" y="184" width="8" height="8"></rect><rect x="64" y="184" width="8" height="8"></rect><rect x="96" y="184" width="8" height="8"></rect><rect x="128" y="184" width="8" height="8"></rect><rect x="152" y="184" width="8" height="8"></rect><rect x="168" y="184" width="8" height="8"></rect><rect x="184" y="184" width="8" height="8"></rect><rect x="88" y="192" width="8" height="8"></rect><rect x="104" y="192" width="8" height="8"></rect><rect x="112" y="192" width="8" height="8"></rect><rect x="120" y="192" width="8" height="8"></rect><rect x="128" y="192" width="8" height="8"></rect><rect x="136" y="192" width="8" height="8"></rect><rect x="152" y="192" width="8" height="8"></rect><rect x="168" y="192" width="8" height="8"></rect><rect x="0" y="0" width="56" height="56"></rect><rect x="8" y="8" width="40" height="40" fill="#fff"></rect><rect x="16" y="16" width="24" height="24" fill="#22383C"></rect><rect x="144" y="0" width="56" height="56"></rect><rect x="152" y="8" width="40" height="40" fill="#fff"></rect><rect x="160" y="16" width="24" height="24" fill="#22383C"></rect><rect x="0" y="144" width="56" height="56"></rect><rect x="8" y="152" width="40" height="40" fill="#fff"></rect><rect x="16" y="160" width="24" height="24" fill="#22383C"></rect></g></svg>
